<?xml version="1.0" standalone="no"?>
<!DOCTYPE svg PUBLIC "-//W3C//DTD SVG 20010904//EN"
 "http://www.w3.org/TR/2001/REC-SVG-20010904/DTD/svg10.dtd">
<svg version="1.0" xmlns="http://www.w3.org/2000/svg"
 width="512.000000pt" height="512.000000pt" viewBox="0 0 512.000000 512.000000"
 preserveAspectRatio="xMidYMid meet">

<g transform="translate(0.000000,512.000000) scale(0.100000,-0.100000)"
fill="#000000" stroke="none">
<path d="M2650 3893 c-42 -7 -173 -43 -215 -59 -49 -19 -205 -115 -262 -160
-23 -19 -69 -69 -103 -112 -121 -153 -131 -158 -220 -127 -259 91 -475 70
-685 -68 -148 -97 -235 -213 -311 -417 -28 -75 -37 -114 -42 -189 -5 -86 -8
-98 -31 -122 -15 -14 -58 -36 -96 -48 -169 -55 -306 -169 -373 -309 l-37 -77
-3 -175 c-4 -197 0 -220 60 -325 69 -120 179 -218 316 -283 l77 -37 238 -3
c215 -3 241 -2 258 14 25 22 24 56 -3 124 -19 48 -22 79 -26 237 -4 202 2 237
64 371 27 61 51 92 131 171 110 108 201 163 333 200 42 12 84 31 97 43 12 13
41 74 63 137 44 126 71 179 135 261 125 162 247 251 420 308 165 55 231 65
388 60 133 -5 149 -7 247 -42 152 -55 213 -93 343 -213 78 -73 88 -75 228 -44
101 22 120 31 139 66 12 23 11 35 -14 113 -60 188 -129 295 -289 449 -123 119
-238 180 -435 229 -117 30 -148 34 -250 33 -65 -1 -128 -4 -142 -6z"/>
<path d="M2630 3156 c-225 -47 -386 -147 -497 -308 -67 -98 -84 -133 -123
-258 -58 -187 -43 -169 -183 -205 -146 -36 -261 -89 -325 -149 -44 -41 -116
-158 -137 -223 -14 -42 -16 -84 -13 -230 l3 -178 36 -70 c80 -153 178 -251
297 -295 138 -52 98 -51 1537 -48 l1340 3 55 26 c70 33 168 123 202 186 49 90
61 152 56 297 -4 115 -8 138 -31 189 -61 135 -164 226 -329 291 -50 20 -64 54
-70 164 -5 83 -10 103 -42 166 -85 168 -183 255 -354 316 -112 39 -115 40
-253 40 -123 0 -148 -3 -211 -25 -111 -39 -115 -38 -221 62 -133 124 -246 194
-378 233 -94 27 -267 35 -359 16z m201 -214 c24 -16 80 -48 124 -72 44 -24 97
-54 118 -67 l37 -24 -2 -191 -3 -192 -55 -31 c-30 -18 -103 -60 -162 -94
l-106 -61 -164 93 -163 94 -3 190 -2 191 162 95 c90 52 165 96 169 96 3 1 25
-12 50 -27z m-925 -931 c44 -20 78 -60 89 -104 7 -26 6 -27 -39 -27 -37 0 -48
4 -57 23 -18 33 -40 46 -76 47 -79 0 -116 -48 -116 -150 0 -100 37 -150 112
-150 32 0 77 31 86 60 5 16 15 20 52 20 44 0 45 -1 38 -27 -27 -109 -168 -165
-275 -110 -146 73 -149 333 -5 414 51 29 133 30 191 4z m424 -26 l0 -45 -45 0
-45 0 0 45 0 45 45 0 45 0 0 -45z m1000 26 c38 -20 80 -73 80 -102 0 -16 -8
-19 -43 -19 -37 0 -46 4 -55 24 -16 35 -79 53 -118 35 -31 -15 -43 -51 -24
-74 6 -7 35 -19 63 -25 147 -30 187 -60 187 -137 0 -95 -54 -138 -175 -138
-111 0 -162 32 -180 113 l-7 32 44 0 c37 -1 46 -5 63 -33 18 -28 26 -32 72
-35 70 -4 95 10 91 51 -3 31 -5 32 -107 62 -79 23 -109 37 -127 58 -48 56 -23
155 47 190 47 23 145 22 189 -2z m-1170 -211 l0 -220 -45 0 -45 0 0 220 0 220
45 0 45 0 0 -220z m670 105 l0 -115 33 37 c19 21 42 48 53 61 15 18 29 22 72
22 l54 0 -56 -62 c-31 -34 -56 -65 -56 -70 0 -4 18 -36 39 -71 21 -35 46 -78
55 -95 l17 -32 -51 0 c-49 0 -50 0 -79 53 -50 88 -46 84 -65 68 -11 -9 -16
-30 -16 -67 l0 -54 -45 0 -45 0 0 220 0 220 45 0 45 0 0 -115z m-192 -16 c21
-13 52 -65 52 -88 0 -6 -18 -11 -43 -11 -34 0 -44 4 -52 23 -7 14 -20 23 -40
25 -48 5 -67 -17 -73 -81 -5 -63 11 -100 48 -112 25 -8 70 18 70 40 0 11 12
15 45 15 49 0 53 -6 30 -50 -47 -91 -189 -106 -250 -25 -51 66 -43 194 14 249
47 45 141 52 199 15z m1477 21 c13 0 37 -11 54 -25 30 -26 30 -26 33 -148 2
-67 7 -130 12 -139 7 -16 2 -18 -38 -18 -33 0 -48 5 -53 15 -5 14 -8 14 -32
-1 -14 -10 -46 -18 -73 -18 -66 -1 -98 30 -98 95 0 40 4 51 30 73 19 15 48 27
78 31 62 8 92 21 92 40 0 37 -94 41 -105 4 -5 -15 -16 -19 -47 -19 -40 0 -40
0 -34 32 4 18 14 41 24 51 18 18 96 38 120 31 8 -2 24 -4 37 -4z m415 -19 c39
-27 60 -78 60 -146 0 -105 -52 -170 -135 -170 -32 0 -50 6 -69 24 l-26 24 0
-86 0 -87 -40 0 -40 0 0 230 0 230 40 0 c34 0 40 -3 40 -22 0 -20 1 -20 19 -4
41 37 103 40 151 7z m-2200 -146 l0 -165 -45 0 -45 0 0 165 0 165 45 0 45 0 0
-165z m1204 148 c2 -10 12 -54 21 -98 26 -127 27 -127 46 -25 29 151 23 140
73 140 l44 0 23 -122 23 -122 26 119 25 120 43 3 c29 2 42 -1 42 -10 0 -7 -20
-80 -44 -163 l-44 -150 -45 -3 -45 -3 -12 58 c-25 122 -38 167 -43 153 -3 -8
-15 -59 -27 -112 l-22 -98 -43 0 c-33 0 -45 4 -49 18 -20 69 -86 304 -86 308
0 2 20 4 44 4 34 0 46 -4 50 -17z m1206 -567 c0 -2 -8 -10 -17 -17 -16 -13
-17 -12 -4 4 13 16 21 21 21 13z"/>
<path d="M2683 2753 l-93 -57 0 -108 0 -108 38 -23 c20 -13 64 -38 97 -56 l61
-33 89 54 90 54 3 112 c3 106 2 112 -20 125 -75 45 -165 97 -169 97 -2 0 -46
-26 -96 -57z m168 -14 c38 -23 69 -43 69 -44 0 -9 -120 -75 -134 -75 -15 0
-120 52 -139 69 -5 5 113 86 131 90 2 1 35 -18 73 -40z"/>
<path d="M4073 1726 c-54 -14 -77 -37 -68 -65 5 -16 15 -21 41 -21 43 0 74 30
74 70 0 17 -1 29 -2 29 -2 -1 -22 -7 -45 -13z"/>
<path d="M4385 1820 c-25 -27 -31 -99 -11 -137 26 -50 90 -52 116 -3 18 34 12
118 -10 140 -25 25 -72 26 -95 0z"/>
</g>
</svg>
